# xmcd CD database file
#
# Track frame offsets:
#	150
#	17775
#	42825
#
# Disc length: 1062 seconds
#
# Revision: 0
# Processed by: cddbd v1.5.1PL0 Copyright (c) Steve Scherf et al.
# Submitted via: CDex 1.51
#
DISCID=1b042403
DTITLE=a1 - Ready Or Not
DYEAR=2000
DGENRE=Pop
TTITLE0=Ready Or Not
TTITLE1=Ready Or Not(Metro Club Mix)
TTITLE2=Ready Or Not(Almighty Club Mix)
EXTD=YEAR: 2000
EXTT0=
EXTT1=
EXTT2=
PLAYORDER=
